:FULLY-SPECIFIED
:FORCE-ALL-JOINTS-BE-3DOF
:DEGREES
714
root -11.6096 13.9336 -38.3047 152.15 -60.3199 -148.211
lfemur -63.11 24.9244 0.380094
ltibia 73.9861 0 0
lfoot -7.60811 -7.89039 -0.000647522
ltoes -2.98753 0 0
rfemur 8.64439 -9.55421 11.6113
rtibia 42.2162 0 0
rfoot -25.3044 -27.3186 -2.88629e-05
rtoes -23.394 0 0
lowerback 12.455 1.44625 8.91953
upperback -1.69557 3.5294 5.73495
thorax -8.69508 1.30149 0.479554
lowerneck -5.12841 4.9536 0.336492
upperneck 4.35754 6.49476 1.65756
head 2.18792 3.28603 0.68032
lclavicle 1.13709e-14 1.04667e-16 5.80344e-31
lhumerus 63.6547 17.0373 109.541
lradius 9.9301 0 0
lwrist -79.7623 0 0
lhand -34.6498 37.009 0.0900087
lfingers 7.12502 0 0
lthumb -7.80498 66.9091 0.0968986
rclavicle 1.13709e-14 1.04667e-16 5.80344e-31
rhumerus -77.8409 18.435 -95.7848
rradius 115.887 0 0
rwrist -69.1293 0 0
rhand -13.0854 -45.0991 -0.0760566
rfingers 7.12502 0 0
rthumb 13.0148 -74.6797 -0.0769616
715
root -11.6195 13.93 -38.3082 152.067 -60.4348 -148.12
lfemur -63.1705 24.8639 0.273992
ltibia 74.0325 0 0
lfoot -7.61999 -7.86122 -0.000530633
ltoes -3.05118 0 0
rfemur 8.5762 -9.63665 11.6712
rtibia 42.2433 0 0
rfoot -25.2985 -27.3383 -8.05743e-05
rtoes -23.4257 0 0
lowerback 12.4649 1.44757 8.90415
upperback -1.69681 3.53032 5.72748
thorax -8.70257 1.30264 0.479351
lowerneck -5.10236 4.91358 0.315813
upperneck 4.33923 6.44268 1.66813
head 2.17936 3.25989 0.686003
lclavicle 1.14389e-14 -3.05301e-16 5.85799e-31
lhumerus 63.3904 16.8703 109.259
lradius 10.315 0 0
lwrist -79.3402 0 0
lhand -34.467 36.9338 0.0705425
lfingers 7.12502 0 0
lthumb -7.62889 66.8267 0.0760057
rclavicle 1.14389e-14 -3.05301e-16 5.85799e-31
rhumerus -77.3391 18.5756 -95.7051
rradius 115.848 0 0
rwrist -68.9497 0 0
rhand -12.8801 -44.8196 -0.0274443
rfingers 7.12502 0 0
rthumb 13.2109 -74.3758 -0.0264038
716
root -11.6293 13.9264 -38.3117 151.979 -60.5572 -148.021
lfemur -63.2375 24.8007 0.160678
ltibia 74.0847 0 0
lfoot -7.63426 -7.8304 -0.000401939
ltoes -3.11949 0 0
rfemur 8.50548 -9.72427 11.7345
rtibia 42.2692 0 0
rfoot -25.2916 -27.3594 -0.00013485
rtoes -23.4663 0 0
lowerback 12.4746 1.4489 8.88803
upperback -1.69817 3.53109 5.71969
thorax -8.71008 1.30377 0.479233
lowerneck -5.0736 4.87152 0.29504
upperneck 4.31926 6.38796 1.67811
head 2.16996 3.2324 0.691413
lclavicle 1.15281e-14 -7.63877e-16 5.94871e-31
lhumerus 63.1128 16.6914 108.96
lradius 10.7216 0 0
lwrist -78.8944 0 0
lhand -34.2728 36.8528 0.0502147
lfingers 7.12502 0 0
lthumb -7.44182 66.7382 0.0541857
rclavicle 1.15281e-14 -7.63877e-16 5.94871e-31
rhumerus -76.8084 18.7233 -95.6201
rradius 115.803 0 0
rwrist -68.7535 0 0
rhand -12.6524 -44.5138 0.023858
rfingers 7.12502 0 0
rthumb 13.4285 -74.0433 0.0269464
717
root -11.6392 13.9228 -38.3152 151.888 -60.6856 -147.916
lfemur -63.3113 24.7359 0.0414189
ltibia 74.1429 0 0
lfoot -7.65131 -7.79838 -0.00026137
ltoes -3.19177 0 0
rfemur 8.43381 -9.81596 11.8
rtibia 42.2925 0 0
rfoot -25.2837 -27.3818 -0.000190793
rtoes -23.5174 0 0
lowerback 12.4835 1.45016 8.87145
upperback -1.69966 3.53163 5.71173
thorax -8.71736 1.30484 0.479237
lowerneck -5.04214 4.82816 0.274876
upperneck 4.29769 6.33153 1.6869
head 2.15975 3.20403 0.696252
lclavicle 1.16432e-14 -1.27319e-15 6.08411e-31
lhumerus 62.8264 16.5027 108.648
lradius 11.1441 0 0
lwrist -78.4316 0 0
lhand -34.0698 36.7668 0.0293799
lfingers 7.12502 0 0
lthumb -7.24633 66.6444 0.031818
rclavicle 1.16432e-14 -1.27319e-15 6.08411e-31
rhumerus -76.2568 18.8758 -95.5309
rradius 115.754 0 0
rwrist -68.5414 0 0
rhand -12.402 -44.1828 0.0770915
rfingers 7.12502 0 0
rthumb 13.6679 -73.6831 0.0823328
718
root -11.649 13.9192 -38.3187 151.794 -60.8185 -147.805
lfemur -63.392 24.6707 -0.0825227
ltibia 74.2075 0 0
lfoot -7.67153 -7.76563 -0.000108506
ltoes -3.26738 0 0
rfemur 8.36279 -9.91059 11.8668
rtibia 42.3119 0 0
rfoot -25.2747 -27.4053 -0.000247421
rtoes -23.5812 0 0
lowerback 12.4914 1.45133 8.85471
upperback -1.70128 3.53187 5.70377
thorax -8.72416 1.30578 0.479397
lowerneck -5.00795 4.78421 0.256025
upperneck 4.27461 6.27435 1.69393
head 2.14874 3.17525 0.700225
lclavicle 1.17891e-14 -1.83536e-15 6.27112e-31
lhumerus 62.5355 16.3064 108.326
lradius 11.5761 0 0
lwrist -77.9587 0 0
lhand -33.8607 36.6764 0.00837888
lfingers 7.12502 0 0
lthumb -7.0449 66.5462 0.00926729
rclavicle 1.17891e-14 -1.83536e-15 6.27112e-31
rhumerus -75.6924 19.0305 -95.4391
rradius 115.699 0 0
rwrist -68.3139 0 0
rhand -12.1285 -43.8273 0.1315
rfingers 7.12502 0 0
rthumb 13.9295 -73.2963 0.138962
719
root -11.6589 13.9155 -38.3221 151.699 -60.9544 -147.69
lfemur -63.4797 24.6064 -0.209891
ltibia 74.2787 0 0
lfoot -7.69531 -7.73263 5.73323e-05
ltoes -3.34563 0 0
rfemur 8.29399 -10.0071 11.9338
rtibia 42.3259 0 0
rfoot -25.2646 -27.4295 -0.000303677
rtoes -23.6593 0 0
lowerback 12.4977 1.45233 8.83811
upperback -1.70301 3.53173 5.69595
thorax -8.73021 1.30656 0.479751
lowerneck -4.97106 4.74039 0.239192
upperneck 4.25011 6.21734 1.69861
head 2.13696 3.14651 0.703034
lclavicle 1.19705e-14 -2.45252e-15 6.51481e-31
lhumerus 62.2447 16.1048 107.997
lradius 12.0116 0 0
lwrist -77.4824 0 0
lhand -33.6481 36.5825 -0.0124594
lfingers 7.12502 0 0
lthumb -6.84006 66.4443 -0.0131149
rclavicle 1.19705e-14 -2.45252e-15 6.51481e-31
rhumerus -75.1234 19.1853 -95.3461
rradius 115.638 0 0
rwrist -68.0718 0 0
rhand -11.8316 -43.4483 0.186292
rfingers 7.12502 0 0
rthumb 14.2137 -72.8837 0.196013
720
root -11.6687 13.9119 -38.3256 151.605 -61.0917 -147.572
lfemur -63.5747 24.5441 -0.33944
ltibia 74.3568 0 0
lfoot -7.72306 -7.69984 0.000236964
ltoes -3.42588 0 0
rfemur 8.22903 -10.1042 11.9999
rtibia 42.3333 0 0
rfoot -25.2532 -27.4545 -0.000358438
rtoes -23.7538 0 0
lowerback 12.502 1.45313 8.82192
upperback -1.70487 3.53112 5.68844
thorax -8.73527 1.30713 0.480336
lowerneck -4.93147 4.69742 0.225085
upperneck 4.22427 6.16146 1.70035
head 2.12442 3.11828 0.704383
lclavicle 1.21924e-14 -3.1268e-15 6.8181e-31
lhumerus 61.9583 15.9002 107.667
lradius 12.4445 0 0
lwrist -77.0096 0 0
lhand -33.4345 36.4857 -0.0328191
lfingers 7.12502 0 0
lthumb -6.63431 66.3397 -0.034991
rclavicle 1.21924e-14 -3.1268e-15 6.8181e-31
rhumerus -74.5579 19.3379 -95.2535
rradius 115.571 0 0
rwrist -67.8157 0 0
rhand -11.511 -43.0468 0.240654
rfingers 7.12502 0 0
rthumb 14.5207 -72.4465 0.252642
721
root -11.6786 13.9083 -38.3291 151.514 -61.2292 -147.451
lfemur -63.6771 24.4851 -0.469929
ltibia 74.4423 0 0
lfoot -7.75517 -7.66773 0.000431197
ltoes -3.50745 0 0
rfemur 8.16951 -10.2011 12.0641
rtibia 42.3326 0 0
rfoot -25.2404 -27.4799 -0.000410535
rtoes -23.8665 0 0
lowerback 12.5039 1.45368 8.80645
upperback -1.70685 3.52995 5.68138
thorax -8.73907 1.30744 0.481186
lowerneck -4.88917 4.65603 0.214408
upperneck 4.19718 6.10762 1.69856
head 2.11114 3.09103 0.703975
lclavicle 1.24596e-14 -3.86032e-15 7.18149e-31
lhumerus 61.6806 15.6952 107.337
lradius 12.8685 0 0
lwrist -76.5471 0 0
lhand -33.2226 36.3867 -0.052398
lfingers 7.12502 0 0
lthumb -6.43016 66.2332 -0.0560384
rclavicle 1.24596e-14 -3.86032e-15 7.18149e-31
rhumerus -74.0041 19.4861 -95.1631
rradius 115.498 0 0
rwrist -67.5463 0 0
rhand -11.1664 -42.6237 0.293751
rfingers 7.12502 0 0
rthumb 14.8509 -71.9856 0.307979
722
root -11.6884 13.9047 -38.3326 151.426 -61.3651 -147.329
lfemur -63.7871 24.4306 -0.600129
ltibia 74.5354 0 0
lfoot -7.79204 -7.63676 0.000640642
ltoes -3.58967 0 0
rfemur 8.11704 -10.2964 12.1254
rtibia 42.3224 0 0
rfoot -25.2262 -27.5055 -0.000458766
rtoes -23.9993 0 0
lowerback 12.5029 1.45391 8.79198
upperback -1.70895 3.52816 5.67493
thorax -8.74136 1.30745 0.48234
lowerneck -4.84418 4.61691 0.207871
upperneck 4.16892 6.05678 1.69266
head 2.09714 3.06521 0.701512
lclavicle 1.27768e-14 -4.65521e-15 7.60268e-31
lhumerus 61.4158 15.4922 107.013
lradius 13.2776 0 0
lwrist -76.1017 0 0
lhand -33.015 36.2863 -0.0709087
lfingers 7.12502 0 0
lthumb -6.23013 66.1257 -0.07595
rclavicle 1.27768e-14 -4.65521e-15 7.60268e-31
rhumerus -73.4704 19.6277 -95.0766
rradius 115.418 0 0
rwrist -67.2643 0 0
rhand -10.7974 -42.1799 0.344728
rfingers 7.12502 0 0
rthumb 15.2046 -71.5019 0.361133
723
root -11.6983 13.9011 -38.3361 151.344 -61.4981 -147.206
lfemur -63.9049 24.3819 -0.728821
ltibia 74.6363 0 0
lfoot -7.83405 -7.60739 0.000865495
ltoes -3.67189 0 0
rfemur 8.07325 -10.3892 12.1827
rtibia 42.3015 0 0
rfoot -25.2104 -27.5312 -0.000501923
rtoes -24.1541 0 0
lowerback 12.4986 1.45378 8.7788
upperback -1.71117 3.52566 5.66926
thorax -8.74189 1.3071 0.483832
lowerneck -4.79649 4.5808 0.206183
upperneck 4.13958 6.00987 1.68207
head 2.08244 3.04131 0.696698
lclavicle 1.3149e-14 -5.5136e-15 8.07626e-31
lhumerus 61.1681 15.2938 106.696
lradius 13.6655 0 0
lwrist -75.6803 0 0
lhand -32.8143 36.1852 -0.0880782
lfingers 7.12502 0 0
lthumb -6.03673 66.018 -0.0944344
rclavicle 1.3149e-14 -5.5136e-15 8.07626e-31
rhumerus -72.965 19.7606 -94.9958
rradius 115.332 0 0
rwrist -66.9702 0 0
rhand -10.4038 -41.7164 0.392709
rfingers 7.12502 0 0
rthumb 15.5822 -70.9965 0.411192
724
root -11.7081 13.8974 -38.3396 151.269 -61.6267 -147.085
lfemur -64.0308 24.34 -0.854796
ltibia 74.7455 0 0
lfoot -7.88162 -7.58011 0.00110529
ltoes -3.75343 0 0
rfemur 8.03977 -10.4783 12.2348
rtibia 42.2684 0 0
rfoot -25.193 -27.5567 -0.000538813
rtoes -24.3327 0 0
lowerback 12.4906 1.45325 8.76721
upperback -1.7135 3.52236 5.66451
thorax -8.74039 1.30634 0.4857
lowerneck -4.74612 4.5484 0.210055
upperneck 4.10924 5.96783 1.66618
head 2.06708 3.01977 0.689233
lclavicle 1.35809e-14 -6.43761e-15 8.59334e-31
lhumerus 60.9414 15.1027 106.39
lradius 14.0263 0 0
lwrist -75.2896 0 0
lhand -32.6231 36.0842 -0.103648
lfingers 7.12502 0 0
lthumb -5.85248 65.911 -0.111216
rclavicle 1.35809e-14 -6.43761e-15 8.59334e-31
rhumerus -72.4963 19.8829 -94.9228
rradius 115.238 0 0
rwrist -66.6649 0 0
rhand -9.98532 -41.2342 0.436804
rfingers 7.12502 0 0
rthumb 15.9839 -70.4705 0.457225
725
root -11.718 13.8938 -38.3431 151.203 -61.7495 -146.966
lfemur -64.1649 24.3063 -0.976855
ltibia 74.8632 0 0
lfoot -7.93512 -7.55537 0.00135861
ltoes -3.83364 0 0
rfemur 8.01822 -10.5627 12.2807
rtibia 42.2217 0 0
rfoot -25.1738 -27.5819 -0.000568289
rtoes -24.537 0 0
lowerback 12.4784 1.45224 8.7575
upperback -1.71595 3.51819 5.66083
thorax -8.73662 1.30514 0.48798
lowerneck -4.69308 4.52042 0.2202
upperneck 4.07799 5.93158 1.64441
head 2.05105 3.00107 0.678819
lclavicle 1.40774e-14 -7.42937e-15 9.14118e-31
lhumerus 60.7399 14.9216 106.1
lradius 14.3536 0 0
lwrist -74.9366 0 0
lhand -32.4441 35.984 -0.117371
lfingers 7.12502 0 0
lthumb -5.67994 65.8055 -0.126027
rclavicle 1.40774e-14 -7.42937e-15 9.14118e-31
rhumerus -72.0726 19.9924 -94.8595
rradius 115.136 0 0
rwrist -66.349 0 0
rhand -9.54163 -40.7343 0.476107
rfingers 7.12502 0 0
rthumb 16.4099 -69.9249 0.498284
726
root -11.7278 13.8902 -38.3466 151.148 -61.8649 -146.851
lfemur -64.3076 24.2821 -1.09381
ltibia 74.9898 0 0
lfoot -7.99496 -7.53363 0.00162279
ltoes -3.91184 0 0
rfemur 8.01026 -10.6412 12.3193
rtibia 42.1602 0 0
rfoot -25.1528 -27.6065 -0.00058928
rtoes -24.769 0 0
lowerback 12.4616 1.45073 8.74996
upperback -1.71852 3.51307 5.6584
thorax -8.7303 1.30344 0.490708
lowerneck -4.63736 4.49758 0.237332
upperneck 4.04592 5.90207 1.61616
head 2.03439 2.98566 0.665159
lclavicle 1.46433e-14 -8.491e-15 9.7028e-31
lhumerus 60.5676 14.7533 105.827
lradius 14.6413 0 0
lwrist -74.6279 0 0
lhand -32.2798 35.8854 -0.129022
lfingers 7.12502 0 0
lthumb -5.52156 65.7025 -0.13863
rclavicle 1.46433e-14 -8.491e-15 9.7028e-31
rhumerus -71.7023 20.0873 -94.808
rradius 115.027 0 0
rwrist -66.0231 0 0
rhand -9.07253 -40.2177 0.509698
rfingers 7.12502 0 0
rthumb 16.8605 -69.3606 0.533407
